<svg width="176" height="176" viewBox="0 0 176 176" fill="none" xmlns="http://www.w3.org/2000/svg">
  <rect x="18" y="24" width="122" height="128" rx="12" fill="#fff7fb" stroke="#cc4f78" stroke-width="4"/>
  <path d="M18 54H140" stroke="#cc4f78" stroke-width="4"/>
  <rect x="38" y="74" width="18" height="18" rx="4" fill="#e6ddfb"/>
  <rect x="66" y="74" width="18" height="18" rx="4" fill="#d8ece2"/>
  <rect x="94" y="74" width="18" height="18" rx="4" fill="#ffe1eb"/>
  <rect x="38" y="104" width="18" height="18" rx="4" fill="#d8ece2"/>
  <rect x="66" y="104" width="18" height="18" rx="4" fill="#ffe1eb"/>
  <path d="M102 126C115 114 122 99 122 83" stroke="#7f9d8e" stroke-width="5" stroke-linecap="round"/>
  <path d="M108 126C129 119 143 102 148 79" stroke="#963858" stroke-width="5" stroke-linecap="round"/>
  <path d="M132 56C145 44 159 48 163 61C150 65 139 63 132 56Z" fill="#d8ece2" stroke="#7f9d8e" stroke-width="3"/>
  <path d="M127 59C132 43 123 33 110 36C109 49 115 57 127 59Z" fill="#ffe1eb" stroke="#cc4f78" stroke-width="3"/>
  <circle cx="130" cy="60" r="7" fill="#bc7f36"/>
  <path d="M44 24V14" stroke="#963858" stroke-width="6" stroke-linecap="round"/>
  <path d="M112 24V14" stroke="#963858" stroke-width="6" stroke-linecap="round"/>
</svg>
